{
	"patcher" : 	{
		"fileversion" : 1,
		"appversion" : 		{
			"major" : 6,
			"minor" : 1,
			"revision" : 9,
			"architecture" : "x86"
		}
,
		"rect" : [ 73.0, 72.0, 555.0, 298.0 ],
		"bgcolor" : [ 1.0, 1.0, 1.0, 0.0 ],
		"bglocked" : 0,
		"openinpresentation" : 0,
		"default_fontsize" : 14.0,
		"default_fontface" : 0,
		"default_fontname" : "Arial",
		"gridonopen" : 2,
		"gridsize" : [ 15.0, 15.0 ],
		"gridsnaponopen" : 0,
		"statusbarvisible" : 2,
		"toolbarvisible" : 0,
		"boxanimatetime" : 200,
		"imprint" : 0,
		"enablehscroll" : 0,
		"enablevscroll" : 0,
		"devicewidth" : 0.0,
		"description" : "",
		"digest" : "",
		"tags" : "",
		"showontab" : 1,
		"boxes" : [ 			{
				"box" : 				{
					"fontname" : "Arial",
					"fontsize" : 8.0,
					"hidden" : 1,
					"id" : "obj-4",
					"maxclass" : "newobj",
					"numinlets" : 1,
					"numoutlets" : 0,
					"patcher" : 					{
						"fileversion" : 1,
						"appversion" : 						{
							"major" : 6,
							"minor" : 1,
							"revision" : 9,
							"architecture" : "x86"
						}
,
						"rect" : [ 25.0, 70.0, 640.0, 480.0 ],
						"bglocked" : 0,
						"openinpresentation" : 0,
						"default_fontsize" : 12.0,
						"default_fontface" : 0,
						"default_fontname" : "Arial",
						"gridonopen" : 0,
						"gridsize" : [ 15.0, 15.0 ],
						"gridsnaponopen" : 0,
						"statusbarvisible" : 2,
						"toolbarvisible" : 1,
						"boxanimatetime" : 200,
						"imprint" : 0,
						"enablehscroll" : 1,
						"enablevscroll" : 1,
						"devicewidth" : 0.0,
						"description" : "",
						"digest" : "",
						"tags" : "",
						"boxes" : [ 							{
								"box" : 								{
									"fontname" : "Arial",
									"fontsize" : 14.0,
									"id" : "obj-14",
									"linecount" : 2,
									"maxclass" : "message",
									"numinlets" : 2,
									"numoutlets" : 1,
									"outlettype" : [ "" ],
									"patching_rect" : [ 50.0, 100.0, 137.0, 36.0 ],
									"text" : ";\r/engine/editor open;\r"
								}

							}
, 							{
								"box" : 								{
									"comment" : "",
									"id" : "obj-3",
									"maxclass" : "inlet",
									"numinlets" : 0,
									"numoutlets" : 1,
									"outlettype" : [ "bang" ],
									"patching_rect" : [ 50.0, 40.0, 25.0, 25.0 ]
								}

							}
 ],
						"lines" : [ 							{
								"patchline" : 								{
									"destination" : [ "obj-14", 0 ],
									"disabled" : 0,
									"hidden" : 0,
									"source" : [ "obj-3", 0 ]
								}

							}
 ]
					}
,
					"patching_rect" : [ 194.5, 8.332825, 35.0, 15.0 ],
					"saved_object_attributes" : 					{
						"default_fontface" : 0,
						"default_fontname" : "Arial",
						"default_fontsize" : 12.0,
						"description" : "",
						"digest" : "",
						"fontface" : 0,
						"fontname" : "Arial",
						"fontsize" : 12.0,
						"globalpatchername" : "",
						"tags" : ""
					}
,
					"text" : "p open"
				}

			}
, 			{
				"box" : 				{
					"fontname" : "Arial",
					"fontsize" : 14.0,
					"hidden" : 1,
					"id" : "obj-1",
					"maxclass" : "newobj",
					"numinlets" : 0,
					"numoutlets" : 0,
					"patcher" : 					{
						"fileversion" : 1,
						"appversion" : 						{
							"major" : 6,
							"minor" : 1,
							"revision" : 9,
							"architecture" : "x86"
						}
,
						"rect" : [ 0.0, 26.0, 555.0, 272.0 ],
						"bglocked" : 0,
						"openinpresentation" : 0,
						"default_fontsize" : 12.0,
						"default_fontface" : 0,
						"default_fontname" : "Arial",
						"gridonopen" : 0,
						"gridsize" : [ 15.0, 15.0 ],
						"gridsnaponopen" : 0,
						"statusbarvisible" : 2,
						"toolbarvisible" : 1,
						"boxanimatetime" : 200,
						"imprint" : 0,
						"enablehscroll" : 1,
						"enablevscroll" : 1,
						"devicewidth" : 0.0,
						"description" : "",
						"digest" : "",
						"tags" : "",
						"showontab" : 1,
						"boxes" : [ 							{
								"box" : 								{
									"fontname" : "Arial",
									"fontsize" : 14.0,
									"id" : "obj-90",
									"maxclass" : "newobj",
									"numinlets" : 2,
									"numoutlets" : 1,
									"outlettype" : [ "" ],
									"patching_rect" : [ 15.0, 47.0, 63.0, 22.0 ],
									"text" : "pack 1 1"
								}

							}
, 							{
								"box" : 								{
									"fontname" : "Arial",
									"fontsize" : 14.0,
									"id" : "obj-83",
									"maxclass" : "newobj",
									"numinlets" : 1,
									"numoutlets" : 3,
									"outlettype" : [ "int", "int", "int" ],
									"patching_rect" : [ 15.0, 15.0, 49.0, 22.0 ],
									"text" : "notein"
								}

							}
, 							{
								"box" : 								{
									"fontname" : "Arial",
									"fontsize" : 14.0,
									"id" : "obj-1",
									"maxclass" : "newobj",
									"numinlets" : 1,
									"numoutlets" : 0,
									"patcher" : 									{
										"fileversion" : 1,
										"appversion" : 										{
											"major" : 6,
											"minor" : 1,
											"revision" : 9,
											"architecture" : "x86"
										}
,
										"rect" : [ 25.0, 69.0, 863.0, 704.0 ],
										"bglocked" : 0,
										"openinpresentation" : 0,
										"default_fontsize" : 12.0,
										"default_fontface" : 0,
										"default_fontname" : "Arial",
										"gridonopen" : 0,
										"gridsize" : [ 15.0, 15.0 ],
										"gridsnaponopen" : 0,
										"statusbarvisible" : 2,
										"toolbarvisible" : 1,
										"boxanimatetime" : 200,
										"imprint" : 0,
										"enablehscroll" : 1,
										"enablevscroll" : 1,
										"devicewidth" : 0.0,
										"description" : "",
										"digest" : "",
										"tags" : "",
										"boxes" : [ 											{
												"box" : 												{
													"comment" : "",
													"id" : "obj-2",
													"maxclass" : "inlet",
													"numinlets" : 0,
													"numoutlets" : 1,
													"outlettype" : [ "" ],
													"patching_rect" : [ 20.0, 10.0, 25.0, 25.0 ]
												}

											}
, 											{
												"box" : 												{
													"fontname" : "Arial",
													"fontsize" : 14.0,
													"frgb" : 0.0,
													"id" : "obj-134",
													"maxclass" : "comment",
													"numinlets" : 1,
													"numoutlets" : 0,
													"patching_rect" : [ 703.5, 165.0, 64.5, 22.0 ],
													"text" : "focus"
												}

											}
, 											{
												"box" : 												{
													"fontname" : "Arial",
													"fontsize" : 14.0,
													"frgb" : 0.0,
													"id" : "obj-133",
													"maxclass" : "comment",
													"numinlets" : 1,
													"numoutlets" : 0,
													"patching_rect" : [ 347.75, 144.0, 64.5, 22.0 ],
													"text" : "zoom"
												}

											}
, 											{
												"box" : 												{
													"bgcolor" : [ 1.0, 1.0, 1.0, 1.0 ],
													"bgoncolor" : [ 1.0, 1.0, 1.0, 1.0 ],
													"fontname" : "Helvetica Light Oblique",
													"fontsize" : 12.0,
													"id" : "obj-130",
													"maxclass" : "textbutton",
													"numinlets" : 1,
													"numoutlets" : 3,
													"outlettype" : [ "", "", "int" ],
													"parameter_enable" : 0,
													"patching_rect" : [ 435.0, 439.0, 100.0, 20.0 ],
													"text" : "tele",
													"texton" : "tele",
													"textoncolor" : [ 0.467332, 0.467332, 0.467332, 1.0 ]
												}

											}
, 											{
												"box" : 												{
													"color" : [ 0.0, 0.572549, 0.811765, 1.0 ],
													"fontname" : "Arial",
													"fontsize" : 12.0,
													"id" : "obj-131",
													"maxclass" : "newobj",
													"numinlets" : 1,
													"numoutlets" : 0,
													"patching_rect" : [ 368.5, 467.0, 125.0, 20.0 ],
													"text" : "s /zoom/standard"
												}

											}
, 											{
												"box" : 												{
													"bgcolor" : [ 1.0, 1.0, 1.0, 1.0 ],
													"bgoncolor" : [ 1.0, 1.0, 1.0, 1.0 ],
													"fontname" : "Helvetica Light Oblique",
													"fontsize" : 12.0,
													"id" : "obj-132",
													"maxclass" : "textbutton",
													"numinlets" : 1,
													"numoutlets" : 3,
													"outlettype" : [ "", "", "int" ],
													"parameter_enable" : 0,
													"patching_rect" : [ 328.0, 439.0, 100.0, 20.0 ],
													"text" : "wide",
													"texton" : "tele",
													"textoncolor" : [ 0.467332, 0.467332, 0.467332, 1.0 ]
												}

											}
, 											{
												"box" : 												{
													"id" : "obj-129",
													"maxclass" : "button",
													"numinlets" : 1,
													"numoutlets" : 1,
													"outlettype" : [ "bang" ],
													"patching_rect" : [ 404.875, 300.0, 20.0, 20.0 ]
												}

											}
, 											{
												"box" : 												{
													"id" : "obj-128",
													"maxclass" : "button",
													"numinlets" : 1,
													"numoutlets" : 1,
													"outlettype" : [ "bang" ],
													"patching_rect" : [ 319.5, 249.0, 20.0, 20.0 ]
												}

											}
, 											{
												"box" : 												{
													"fontname" : "Helvetica Light Oblique",
													"fontsize" : 12.0,
													"id" : "obj-196",
													"maxclass" : "number",
													"maximum" : 7,
													"minimum" : 0,
													"numinlets" : 1,
													"numoutlets" : 2,
													"outlettype" : [ "int", "bang" ],
													"parameter_enable" : 0,
													"patching_rect" : [ 319.5, 291.5, 51.0, 18.0 ],
													"presentation" : 1,
													"presentation_rect" : [ 345.6875, 116.249939, 39.0, 18.0 ],
													"triangle" : 0
												}

											}
, 											{
												"box" : 												{
													"color" : [ 0.0, 0.572549, 0.811765, 1.0 ],
													"fontname" : "Arial",
													"fontsize" : 12.0,
													"id" : "obj-197",
													"maxclass" : "newobj",
													"numinlets" : 1,
													"numoutlets" : 2,
													"outlettype" : [ "", "" ],
													"patching_rect" : [ 319.5, 318.0, 160.0, 20.0 ],
													"text" : "var /zoom/variable/wide"
												}

											}
, 											{
												"box" : 												{
													"fontname" : "Helvetica Light Oblique",
													"fontsize" : 12.0,
													"id" : "obj-195",
													"maxclass" : "number",
													"maximum" : 7,
													"minimum" : 0,
													"numinlets" : 1,
													"numoutlets" : 2,
													"outlettype" : [ "int", "bang" ],
													"parameter_enable" : 0,
													"patching_rect" : [ 404.5, 342.5, 51.0, 18.0 ],
													"presentation" : 1,
													"presentation_rect" : [ 284.875, 116.249939, 39.0, 18.0 ],
													"triangle" : 0
												}

											}
, 											{
												"box" : 												{
													"color" : [ 0.0, 0.572549, 0.811765, 1.0 ],
													"fontname" : "Arial",
													"fontsize" : 12.0,
													"id" : "obj-192",
													"maxclass" : "newobj",
													"numinlets" : 1,
													"numoutlets" : 2,
													"outlettype" : [ "", "" ],
													"patching_rect" : [ 404.5, 369.0, 155.0, 20.0 ],
													"text" : "var /zoom/variable/tele"
												}

											}
, 											{
												"box" : 												{
													"bgcolor" : [ 1.0, 1.0, 1.0, 1.0 ],
													"bgoncolor" : [ 1.0, 1.0, 1.0, 1.0 ],
													"fontname" : "Helvetica Light Oblique",
													"fontsize" : 12.0,
													"id" : "obj-215",
													"maxclass" : "textbutton",
													"numinlets" : 1,
													"numoutlets" : 3,
													"outlettype" : [ "", "", "int" ],
													"parameter_enable" : 0,
													"patching_rect" : [ 864.0, 285.237061, 60.5, 19.0 ],
													"text" : "stop",
													"textoncolor" : [ 0.467332, 0.467332, 0.467332, 1.0 ]
												}

											}
, 											{
												"box" : 												{
													"color" : [ 0.0, 0.572549, 0.811765, 1.0 ],
													"fontname" : "Arial",
													"fontsize" : 12.0,
													"id" : "obj-216",
													"linecount" : 2,
													"maxclass" : "newobj",
													"numinlets" : 1,
													"numoutlets" : 0,
													"patching_rect" : [ 864.0, 312.737061, 67.0, 33.0 ],
													"text" : "s /focus/stop"
												}

											}
, 											{
												"box" : 												{
													"bgcolor" : [ 1.0, 1.0, 1.0, 1.0 ],
													"bgoncolor" : [ 1.0, 1.0, 1.0, 1.0 ],
													"fontname" : "Helvetica Light Oblique",
													"fontsize" : 12.0,
													"id" : "obj-82",
													"maxclass" : "textbutton",
													"numinlets" : 1,
													"numoutlets" : 3,
													"outlettype" : [ "", "", "int" ],
													"parameter_enable" : 0,
													"patching_rect" : [ 771.291626, 282.237061, 70.5, 20.0 ],
													"text" : "far",
													"texton" : "near",
													"textoncolor" : [ 0.467332, 0.467332, 0.467332, 1.0 ]
												}

											}
, 											{
												"box" : 												{
													"color" : [ 0.0, 0.572549, 0.811765, 1.0 ],
													"fontname" : "Arial",
													"fontsize" : 12.0,
													"id" : "obj-126",
													"maxclass" : "newobj",
													"numinlets" : 1,
													"numoutlets" : 0,
													"patching_rect" : [ 689.791626, 312.737061, 125.0, 20.0 ],
													"text" : "s /focus/standard"
												}

											}
, 											{
												"box" : 												{
													"bgcolor" : [ 1.0, 1.0, 1.0, 1.0 ],
													"bgoncolor" : [ 1.0, 1.0, 1.0, 1.0 ],
													"fontname" : "Helvetica Light Oblique",
													"fontsize" : 12.0,
													"id" : "obj-56",
													"maxclass" : "textbutton",
													"numinlets" : 1,
													"numoutlets" : 3,
													"outlettype" : [ "", "", "int" ],
													"parameter_enable" : 0,
													"patching_rect" : [ 649.291626, 282.237061, 100.0, 20.0 ],
													"text" : "near",
													"texton" : "near",
													"textoncolor" : [ 0.467332, 0.467332, 0.467332, 1.0 ]
												}

											}
, 											{
												"box" : 												{
													"fontname" : "Arial",
													"fontsize" : 14.0,
													"id" : "obj-124",
													"maxclass" : "newobj",
													"numinlets" : 3,
													"numoutlets" : 3,
													"outlettype" : [ "", "", "" ],
													"patching_rect" : [ 689.791626, 194.0, 81.0, 22.0 ],
													"text" : "route 57 56"
												}

											}
, 											{
												"box" : 												{
													"fontname" : "Arial",
													"fontsize" : 14.0,
													"id" : "obj-123",
													"maxclass" : "newobj",
													"numinlets" : 3,
													"numoutlets" : 3,
													"outlettype" : [ "", "", "" ],
													"patching_rect" : [ 339.5, 178.0, 81.0, 22.0 ],
													"text" : "route 59 58"
												}

											}
, 											{
												"box" : 												{
													"bgcolor" : [ 1.0, 1.0, 1.0, 1.0 ],
													"bgoncolor" : [ 1.0, 1.0, 1.0, 1.0 ],
													"fontname" : "Helvetica Light Oblique",
													"fontsize" : 12.0,
													"id" : "obj-214",
													"maxclass" : "textbutton",
													"numinlets" : 1,
													"numoutlets" : 3,
													"outlettype" : [ "", "", "int" ],
													"parameter_enable" : 0,
													"patching_rect" : [ 503.5, 290.0, 100.0, 20.0 ],
													"text" : "stop",
													"textoncolor" : [ 0.467332, 0.467332, 0.467332, 1.0 ]
												}

											}
, 											{
												"box" : 												{
													"color" : [ 0.0, 0.572549, 0.811765, 1.0 ],
													"fontname" : "Arial",
													"fontsize" : 12.0,
													"id" : "obj-210",
													"maxclass" : "newobj",
													"numinlets" : 1,
													"numoutlets" : 0,
													"patching_rect" : [ 503.5, 318.0, 101.0, 20.0 ],
													"text" : "s /zoom/stop"
												}

											}
, 											{
												"box" : 												{
													"fontname" : "Arial",
													"fontsize" : 14.0,
													"frgb" : 0.0,
													"id" : "obj-118",
													"maxclass" : "comment",
													"numinlets" : 1,
													"numoutlets" : 0,
													"patching_rect" : [ 132.416626, 128.0, 64.5, 22.0 ],
													"text" : "position"
												}

											}
, 											{
												"box" : 												{
													"fontname" : "Arial",
													"fontsize" : 14.0,
													"frgb" : 0.0,
													"id" : "obj-116",
													"maxclass" : "comment",
													"numinlets" : 1,
													"numoutlets" : 0,
													"patching_rect" : [ 68.666626, 19.0, 74.75, 22.0 ],
													"text" : "Joystick"
												}

											}
, 											{
												"box" : 												{
													"id" : "obj-114",
													"maxclass" : "button",
													"numinlets" : 1,
													"numoutlets" : 1,
													"outlettype" : [ "bang" ],
													"patching_rect" : [ 178.791626, 230.0, 20.0, 20.0 ]
												}

											}
, 											{
												"box" : 												{
													"fontname" : "Arial",
													"fontsize" : 14.0,
													"id" : "obj-110",
													"maxclass" : "newobj",
													"numinlets" : 2,
													"numoutlets" : 2,
													"outlettype" : [ "bang", "" ],
													"patching_rect" : [ 753.5, 235.0, 56.0, 22.0 ],
													"text" : "sel 127"
												}

											}
, 											{
												"box" : 												{
													"fontname" : "Arial",
													"fontsize" : 14.0,
													"id" : "obj-109",
													"maxclass" : "newobj",
													"numinlets" : 2,
													"numoutlets" : 2,
													"outlettype" : [ "bang", "" ],
													"patching_rect" : [ 689.791626, 235.0, 56.0, 22.0 ],
													"text" : "sel 127"
												}

											}
, 											{
												"box" : 												{
													"fontname" : "Arial",
													"fontsize" : 14.0,
													"id" : "obj-108",
													"maxclass" : "newobj",
													"numinlets" : 2,
													"numoutlets" : 2,
													"outlettype" : [ "bang", "" ],
													"patching_rect" : [ 404.5, 213.0, 56.0, 22.0 ],
													"text" : "sel 127"
												}

											}
, 											{
												"box" : 												{
													"fontname" : "Arial",
													"fontsize" : 14.0,
													"id" : "obj-107",
													"maxclass" : "newobj",
													"numinlets" : 2,
													"numoutlets" : 2,
													"outlettype" : [ "bang", "" ],
													"patching_rect" : [ 339.5, 213.0, 56.0, 22.0 ],
													"text" : "sel 127"
												}

											}
, 											{
												"box" : 												{
													"fontname" : "Arial",
													"fontsize" : 14.0,
													"id" : "obj-106",
													"maxclass" : "newobj",
													"numinlets" : 2,
													"numoutlets" : 2,
													"outlettype" : [ "bang", "" ],
													"patching_rect" : [ 208.791626, 194.0, 56.0, 22.0 ],
													"text" : "sel 127"
												}

											}
, 											{
												"box" : 												{
													"fontname" : "Arial",
													"fontsize" : 14.0,
													"id" : "obj-105",
													"maxclass" : "newobj",
													"numinlets" : 2,
													"numoutlets" : 2,
													"outlettype" : [ "bang", "" ],
													"patching_rect" : [ 141.791626, 194.0, 56.0, 22.0 ],
													"text" : "sel 127"
												}

											}
, 											{
												"box" : 												{
													"fontname" : "Arial",
													"fontsize" : 14.0,
													"id" : "obj-104",
													"maxclass" : "newobj",
													"numinlets" : 2,
													"numoutlets" : 2,
													"outlettype" : [ "bang", "" ],
													"patching_rect" : [ 84.5, 194.0, 56.0, 22.0 ],
													"text" : "sel 127"
												}

											}
, 											{
												"box" : 												{
													"bgcolor" : [ 1.0, 1.0, 1.0, 1.0 ],
													"bgoncolor" : [ 1.0, 1.0, 1.0, 1.0 ],
													"fontname" : "Helvetica Light Oblique",
													"fontsize" : 12.0,
													"id" : "obj-103",
													"maxclass" : "textbutton",
													"numinlets" : 1,
													"numoutlets" : 3,
													"outlettype" : [ "", "", "int" ],
													"parameter_enable" : 0,
													"patching_rect" : [ 107.75, 274.0, 63.5, 28.0 ],
													"text" : "stop",
													"textoncolor" : [ 0.0, 0.0, 0.0, 1.0 ]
												}

											}
, 											{
												"box" : 												{
													"id" : "obj-99",
													"maxclass" : "button",
													"numinlets" : 1,
													"numoutlets" : 1,
													"outlettype" : [ "bang" ],
													"patching_rect" : [ 84.5, 230.0, 20.0, 20.0 ]
												}

											}
, 											{
												"box" : 												{
													"fontname" : "Arial",
													"fontsize" : 14.0,
													"id" : "obj-96",
													"maxclass" : "newobj",
													"numinlets" : 2,
													"numoutlets" : 2,
													"outlettype" : [ "bang", "" ],
													"patching_rect" : [ 20.0, 194.0, 56.0, 22.0 ],
													"text" : "sel 127"
												}

											}
, 											{
												"box" : 												{
													"fontname" : "Arial",
													"fontsize" : 14.0,
													"id" : "obj-93",
													"maxclass" : "newobj",
													"numinlets" : 5,
													"numoutlets" : 5,
													"outlettype" : [ "", "", "", "", "" ],
													"patching_rect" : [ 20.0, 165.0, 120.0, 22.0 ],
													"text" : "route 62 60 63 61"
												}

											}
, 											{
												"box" : 												{
													"bgcolor" : [ 1.0, 1.0, 1.0, 1.0 ],
													"bgoncolor" : [ 1.0, 1.0, 1.0, 1.0 ],
													"fontname" : "Helvetica Light Oblique",
													"fontsize" : 12.0,
													"id" : "obj-86",
													"maxclass" : "textbutton",
													"numinlets" : 1,
													"numoutlets" : 3,
													"outlettype" : [ "", "", "int" ],
													"parameter_enable" : 0,
													"patching_rect" : [ 119.291626, 332.0, 63.5, 28.0 ],
													"text" : "reset",
													"textoncolor" : [ 0.0, 0.0, 0.0, 1.0 ]
												}

											}
, 											{
												"box" : 												{
													"color" : [ 0.0, 0.572549, 0.811765, 1.0 ],
													"fontname" : "Arial",
													"fontsize" : 12.0,
													"id" : "obj-87",
													"maxclass" : "newobj",
													"numinlets" : 1,
													"numoutlets" : 0,
													"patching_rect" : [ 73.541626, 482.785706, 65.0, 20.0 ],
													"text" : "s /pos"
												}

											}
, 											{
												"box" : 												{
													"bgcolor" : [ 1.0, 1.0, 1.0, 1.0 ],
													"bgoncolor" : [ 1.0, 1.0, 1.0, 1.0 ],
													"fontname" : "Helvetica Light Oblique",
													"fontsize" : 12.0,
													"id" : "obj-194",
													"maxclass" : "textbutton",
													"numinlets" : 1,
													"numoutlets" : 3,
													"outlettype" : [ "", "", "int" ],
													"parameter_enable" : 0,
													"patching_rect" : [ 181.541626, 423.0, 63.5, 28.0 ],
													"text" : "downright",
													"textoncolor" : [ 0.0, 0.0, 0.0, 1.0 ]
												}

											}
, 											{
												"box" : 												{
													"bgcolor" : [ 1.0, 1.0, 1.0, 1.0 ],
													"bgoncolor" : [ 1.0, 1.0, 1.0, 1.0 ],
													"fontname" : "Helvetica Light Oblique",
													"fontsize" : 12.0,
													"id" : "obj-38",
													"maxclass" : "textbutton",
													"numinlets" : 1,
													"numoutlets" : 3,
													"outlettype" : [ "", "", "int" ],
													"parameter_enable" : 0,
													"patching_rect" : [ 55.791626, 423.0, 63.5, 28.0 ],
													"text" : "downleft",
													"textoncolor" : [ 0.0, 0.0, 0.0, 1.0 ]
												}

											}
, 											{
												"box" : 												{
													"bgcolor" : [ 1.0, 1.0, 1.0, 1.0 ],
													"bgoncolor" : [ 1.0, 1.0, 1.0, 1.0 ],
													"fontname" : "Helvetica Light Oblique",
													"fontsize" : 12.0,
													"id" : "obj-193",
													"maxclass" : "textbutton",
													"numinlets" : 1,
													"numoutlets" : 3,
													"outlettype" : [ "", "", "int" ],
													"parameter_enable" : 0,
													"patching_rect" : [ 181.541626, 369.0, 63.5, 28.0 ],
													"text" : "upright",
													"textoncolor" : [ 0.0, 0.0, 0.0, 1.0 ]
												}

											}
, 											{
												"box" : 												{
													"bgcolor" : [ 1.0, 1.0, 1.0, 1.0 ],
													"bgoncolor" : [ 1.0, 1.0, 1.0, 1.0 ],
													"fontname" : "Helvetica Light Oblique",
													"fontsize" : 12.0,
													"id" : "obj-88",
													"maxclass" : "textbutton",
													"numinlets" : 1,
													"numoutlets" : 3,
													"outlettype" : [ "", "", "int" ],
													"parameter_enable" : 0,
													"patching_rect" : [ 55.791626, 369.0, 63.5, 28.0 ],
													"text" : "upleft",
													"textoncolor" : [ 0.0, 0.0, 0.0, 1.0 ]
												}

											}
, 											{
												"box" : 												{
													"bgcolor" : [ 1.0, 1.0, 1.0, 1.0 ],
													"bgoncolor" : [ 1.0, 1.0, 1.0, 1.0 ],
													"fontname" : "Helvetica Light Oblique",
													"fontsize" : 12.0,
													"id" : "obj-191",
													"maxclass" : "textbutton",
													"numinlets" : 1,
													"numoutlets" : 3,
													"outlettype" : [ "", "", "int" ],
													"parameter_enable" : 0,
													"patching_rect" : [ 107.75, 238.0, 63.5, 28.0 ],
													"text" : "right",
													"textoncolor" : [ 0.0, 0.0, 0.0, 1.0 ]
												}

											}
, 											{
												"box" : 												{
													"bgcolor" : [ 1.0, 1.0, 1.0, 1.0 ],
													"bgoncolor" : [ 1.0, 1.0, 1.0, 1.0 ],
													"fontname" : "Helvetica Light Oblique",
													"fontsize" : 12.0,
													"id" : "obj-190",
													"maxclass" : "textbutton",
													"numinlets" : 1,
													"numoutlets" : 3,
													"outlettype" : [ "", "", "int" ],
													"parameter_enable" : 0,
													"patching_rect" : [ 20.0, 263.0, 63.5, 28.0 ],
													"text" : "left",
													"textoncolor" : [ 0.0, 0.0, 0.0, 1.0 ]
												}

											}
, 											{
												"box" : 												{
													"bgcolor" : [ 1.0, 1.0, 1.0, 1.0 ],
													"bgoncolor" : [ 1.0, 1.0, 1.0, 1.0 ],
													"fontname" : "Helvetica Light Oblique",
													"fontsize" : 12.0,
													"id" : "obj-189",
													"maxclass" : "textbutton",
													"numinlets" : 1,
													"numoutlets" : 3,
													"outlettype" : [ "", "", "int" ],
													"parameter_enable" : 0,
													"patching_rect" : [ 208.791626, 290.0, 63.5, 28.0 ],
													"text" : "down",
													"textoncolor" : [ 0.0, 0.0, 0.0, 1.0 ]
												}

											}
, 											{
												"box" : 												{
													"bgcolor" : [ 1.0, 1.0, 1.0, 1.0 ],
													"bgoncolor" : [ 1.0, 1.0, 1.0, 1.0 ],
													"fontname" : "Helvetica Light Oblique",
													"fontsize" : 12.0,
													"id" : "obj-188",
													"maxclass" : "textbutton",
													"numinlets" : 1,
													"numoutlets" : 3,
													"outlettype" : [ "", "", "int" ],
													"parameter_enable" : 0,
													"patching_rect" : [ 178.791626, 250.0, 63.5, 28.0 ],
													"text" : "up",
													"textoncolor" : [ 0.0, 0.0, 0.0, 1.0 ]
												}

											}
, 											{
												"box" : 												{
													"bgcolor" : [ 1.0, 1.0, 1.0, 1.0 ],
													"bgoncolor" : [ 1.0, 1.0, 1.0, 1.0 ],
													"fontname" : "Helvetica Light Oblique",
													"fontsize" : 12.0,
													"id" : "obj-89",
													"maxclass" : "textbutton",
													"numinlets" : 1,
													"numoutlets" : 3,
													"outlettype" : [ "", "", "int" ],
													"parameter_enable" : 0,
													"patching_rect" : [ 51.291626, 332.0, 63.5, 28.0 ],
													"text" : "home",
													"textoncolor" : [ 0.0, 0.0, 0.0, 1.0 ]
												}

											}
 ],
										"lines" : [ 											{
												"patchline" : 												{
													"destination" : [ "obj-87", 0 ],
													"disabled" : 0,
													"hidden" : 0,
													"source" : [ "obj-103", 1 ]
												}

											}
, 											{
												"patchline" : 												{
													"destination" : [ "obj-191", 0 ],
													"disabled" : 0,
													"hidden" : 0,
													"source" : [ "obj-104", 0 ]
												}

											}
, 											{
												"patchline" : 												{
													"destination" : [ "obj-99", 0 ],
													"disabled" : 0,
													"hidden" : 0,
													"source" : [ "obj-104", 1 ]
												}

											}
, 											{
												"patchline" : 												{
													"destination" : [ "obj-114", 0 ],
													"disabled" : 0,
													"hidden" : 0,
													"source" : [ "obj-105", 1 ]
												}

											}
, 											{
												"patchline" : 												{
													"destination" : [ "obj-188", 0 ],
													"disabled" : 0,
													"hidden" : 0,
													"source" : [ "obj-105", 0 ]
												}

											}
, 											{
												"patchline" : 												{
													"destination" : [ "obj-114", 0 ],
													"disabled" : 0,
													"hidden" : 0,
													"source" : [ "obj-106", 1 ]
												}

											}
, 											{
												"patchline" : 												{
													"destination" : [ "obj-189", 0 ],
													"disabled" : 0,
													"hidden" : 0,
													"source" : [ "obj-106", 0 ]
												}

											}
, 											{
												"patchline" : 												{
													"destination" : [ "obj-128", 0 ],
													"disabled" : 0,
													"hidden" : 0,
													"source" : [ "obj-107", 0 ]
												}

											}
, 											{
												"patchline" : 												{
													"destination" : [ "obj-214", 0 ],
													"disabled" : 0,
													"hidden" : 0,
													"source" : [ "obj-107", 1 ]
												}

											}
, 											{
												"patchline" : 												{
													"destination" : [ "obj-129", 0 ],
													"disabled" : 0,
													"hidden" : 0,
													"source" : [ "obj-108", 0 ]
												}

											}
, 											{
												"patchline" : 												{
													"destination" : [ "obj-214", 0 ],
													"disabled" : 0,
													"hidden" : 0,
													"source" : [ "obj-108", 1 ]
												}

											}
, 											{
												"patchline" : 												{
													"destination" : [ "obj-215", 0 ],
													"disabled" : 0,
													"hidden" : 0,
													"source" : [ "obj-109", 1 ]
												}

											}
, 											{
												"patchline" : 												{
													"destination" : [ "obj-56", 0 ],
													"disabled" : 0,
													"hidden" : 0,
													"source" : [ "obj-109", 0 ]
												}

											}
, 											{
												"patchline" : 												{
													"destination" : [ "obj-215", 0 ],
													"disabled" : 0,
													"hidden" : 0,
													"source" : [ "obj-110", 1 ]
												}

											}
, 											{
												"patchline" : 												{
													"destination" : [ "obj-82", 0 ],
													"disabled" : 0,
													"hidden" : 0,
													"source" : [ "obj-110", 0 ]
												}

											}
, 											{
												"patchline" : 												{
													"destination" : [ "obj-103", 0 ],
													"disabled" : 0,
													"hidden" : 0,
													"source" : [ "obj-114", 0 ]
												}

											}
, 											{
												"patchline" : 												{
													"destination" : [ "obj-107", 0 ],
													"disabled" : 0,
													"hidden" : 0,
													"source" : [ "obj-123", 0 ]
												}

											}
, 											{
												"patchline" : 												{
													"destination" : [ "obj-108", 0 ],
													"disabled" : 0,
													"hidden" : 0,
													"source" : [ "obj-123", 1 ]
												}

											}
, 											{
												"patchline" : 												{
													"destination" : [ "obj-109", 0 ],
													"disabled" : 0,
													"hidden" : 0,
													"source" : [ "obj-124", 0 ]
												}

											}
, 											{
												"patchline" : 												{
													"destination" : [ "obj-110", 0 ],
													"disabled" : 0,
													"hidden" : 0,
													"source" : [ "obj-124", 1 ]
												}

											}
, 											{
												"patchline" : 												{
													"destination" : [ "obj-196", 0 ],
													"disabled" : 0,
													"hidden" : 0,
													"source" : [ "obj-128", 0 ]
												}

											}
, 											{
												"patchline" : 												{
													"destination" : [ "obj-195", 0 ],
													"disabled" : 0,
													"hidden" : 0,
													"source" : [ "obj-129", 0 ]
												}

											}
, 											{
												"patchline" : 												{
													"destination" : [ "obj-131", 0 ],
													"disabled" : 0,
													"hidden" : 0,
													"midpoints" : [ 485.0, 462.5, 378.0, 462.5 ],
													"source" : [ "obj-130", 1 ]
												}

											}
, 											{
												"patchline" : 												{
													"destination" : [ "obj-131", 0 ],
													"disabled" : 0,
													"hidden" : 0,
													"source" : [ "obj-132", 1 ]
												}

											}
, 											{
												"patchline" : 												{
													"destination" : [ "obj-87", 0 ],
													"disabled" : 0,
													"hidden" : 0,
													"source" : [ "obj-188", 1 ]
												}

											}
, 											{
												"patchline" : 												{
													"destination" : [ "obj-87", 0 ],
													"disabled" : 0,
													"hidden" : 0,
													"source" : [ "obj-189", 1 ]
												}

											}
, 											{
												"patchline" : 												{
													"destination" : [ "obj-87", 0 ],
													"disabled" : 0,
													"hidden" : 0,
													"source" : [ "obj-190", 1 ]
												}

											}
, 											{
												"patchline" : 												{
													"destination" : [ "obj-87", 0 ],
													"disabled" : 0,
													"hidden" : 0,
													"source" : [ "obj-191", 1 ]
												}

											}
, 											{
												"patchline" : 												{
													"destination" : [ "obj-195", 0 ],
													"disabled" : 0,
													"hidden" : 0,
													"midpoints" : [ 414.0, 399.0, 396.0, 399.0, 396.0, 332.5, 414.0, 332.5 ],
													"source" : [ "obj-192", 0 ]
												}

											}
, 											{
												"patchline" : 												{
													"destination" : [ "obj-87", 0 ],
													"disabled" : 0,
													"hidden" : 0,
													"source" : [ "obj-193", 1 ]
												}

											}
, 											{
												"patchline" : 												{
													"destination" : [ "obj-87", 0 ],
													"disabled" : 0,
													"hidden" : 0,
													"source" : [ "obj-194", 1 ]
												}

											}
, 											{
												"patchline" : 												{
													"destination" : [ "obj-192", 0 ],
													"disabled" : 0,
													"hidden" : 0,
													"source" : [ "obj-195", 0 ]
												}

											}
, 											{
												"patchline" : 												{
													"destination" : [ "obj-197", 0 ],
													"disabled" : 0,
													"hidden" : 0,
													"source" : [ "obj-196", 0 ]
												}

											}
, 											{
												"patchline" : 												{
													"destination" : [ "obj-196", 0 ],
													"disabled" : 0,
													"hidden" : 0,
													"midpoints" : [ 329.0, 348.0, 310.0, 348.0, 310.0, 281.5, 329.0, 281.5 ],
													"source" : [ "obj-197", 0 ]
												}

											}
, 											{
												"patchline" : 												{
													"destination" : [ "obj-123", 0 ],
													"disabled" : 0,
													"hidden" : 0,
													"source" : [ "obj-2", 0 ]
												}

											}
, 											{
												"patchline" : 												{
													"destination" : [ "obj-124", 0 ],
													"disabled" : 0,
													"hidden" : 0,
													"source" : [ "obj-2", 0 ]
												}

											}
, 											{
												"patchline" : 												{
													"destination" : [ "obj-93", 0 ],
													"disabled" : 0,
													"hidden" : 0,
													"source" : [ "obj-2", 0 ]
												}

											}
, 											{
												"patchline" : 												{
													"destination" : [ "obj-210", 0 ],
													"disabled" : 0,
													"hidden" : 0,
													"source" : [ "obj-214", 0 ]
												}

											}
, 											{
												"patchline" : 												{
													"destination" : [ "obj-216", 0 ],
													"disabled" : 0,
													"hidden" : 0,
													"source" : [ "obj-215", 0 ]
												}

											}
, 											{
												"patchline" : 												{
													"destination" : [ "obj-87", 0 ],
													"disabled" : 0,
													"hidden" : 0,
													"source" : [ "obj-38", 1 ]
												}

											}
, 											{
												"patchline" : 												{
													"destination" : [ "obj-126", 0 ],
													"disabled" : 0,
													"hidden" : 0,
													"source" : [ "obj-56", 1 ]
												}

											}
, 											{
												"patchline" : 												{
													"destination" : [ "obj-126", 0 ],
													"disabled" : 0,
													"hidden" : 0,
													"midpoints" : [ 806.541626, 306.987061, 699.291626, 306.987061 ],
													"source" : [ "obj-82", 1 ]
												}

											}
, 											{
												"patchline" : 												{
													"destination" : [ "obj-87", 0 ],
													"disabled" : 0,
													"hidden" : 0,
													"source" : [ "obj-86", 1 ]
												}

											}
, 											{
												"patchline" : 												{
													"destination" : [ "obj-87", 0 ],
													"disabled" : 0,
													"hidden" : 0,
													"source" : [ "obj-88", 1 ]
												}

											}
, 											{
												"patchline" : 												{
													"destination" : [ "obj-87", 0 ],
													"disabled" : 0,
													"hidden" : 0,
													"source" : [ "obj-89", 1 ]
												}

											}
, 											{
												"patchline" : 												{
													"destination" : [ "obj-104", 0 ],
													"disabled" : 0,
													"hidden" : 0,
													"source" : [ "obj-93", 1 ]
												}

											}
, 											{
												"patchline" : 												{
													"destination" : [ "obj-105", 0 ],
													"disabled" : 0,
													"hidden" : 0,
													"source" : [ "obj-93", 2 ]
												}

											}
, 											{
												"patchline" : 												{
													"destination" : [ "obj-106", 0 ],
													"disabled" : 0,
													"hidden" : 0,
													"source" : [ "obj-93", 3 ]
												}

											}
, 											{
												"patchline" : 												{
													"destination" : [ "obj-96", 0 ],
													"disabled" : 0,
													"hidden" : 0,
													"source" : [ "obj-93", 0 ]
												}

											}
, 											{
												"patchline" : 												{
													"destination" : [ "obj-190", 0 ],
													"disabled" : 0,
													"hidden" : 0,
													"source" : [ "obj-96", 0 ]
												}

											}
, 											{
												"patchline" : 												{
													"destination" : [ "obj-99", 0 ],
													"disabled" : 0,
													"hidden" : 0,
													"source" : [ "obj-96", 1 ]
												}

											}
, 											{
												"patchline" : 												{
													"destination" : [ "obj-103", 0 ],
													"disabled" : 0,
													"hidden" : 0,
													"source" : [ "obj-99", 0 ]
												}

											}
 ]
									}
,
									"patching_rect" : [ 15.0, 76.958588, 73.0, 22.0 ],
									"saved_object_attributes" : 									{
										"default_fontface" : 0,
										"default_fontname" : "Arial",
										"default_fontsize" : 12.0,
										"description" : "",
										"digest" : "",
										"fontface" : 0,
										"fontname" : "Arial",
										"fontsize" : 12.0,
										"globalpatchername" : "",
										"tags" : ""
									}
,
									"text" : "p -joystick"
								}

							}
 ],
						"lines" : [ 							{
								"patchline" : 								{
									"destination" : [ "obj-90", 1 ],
									"disabled" : 0,
									"hidden" : 0,
									"source" : [ "obj-83", 1 ]
								}

							}
, 							{
								"patchline" : 								{
									"destination" : [ "obj-90", 0 ],
									"disabled" : 0,
									"hidden" : 0,
									"source" : [ "obj-83", 0 ]
								}

							}
, 							{
								"patchline" : 								{
									"destination" : [ "obj-1", 0 ],
									"disabled" : 0,
									"hidden" : 0,
									"source" : [ "obj-90", 0 ]
								}

							}
 ]
					}
,
					"patching_rect" : [ 371.5, 12.332825, 49.0, 22.0 ],
					"saved_object_attributes" : 					{
						"default_fontface" : 0,
						"default_fontname" : "Arial",
						"default_fontsize" : 12.0,
						"description" : "",
						"digest" : "",
						"fontface" : 0,
						"fontname" : "Arial",
						"fontsize" : 12.0,
						"globalpatchername" : "",
						"tags" : ""
					}
,
					"text" : "p midi"
				}

			}
, 			{
				"box" : 				{
					"annotation" : "none",
					"args" : [ "visca.1" ],
					"bgmode" : 2,
					"border" : 1,
					"id" : "obj-2",
					"maxclass" : "bpatcher",
					"name" : "visca.view.maxpat",
					"numinlets" : 0,
					"numoutlets" : 0,
					"patching_rect" : [ 0.5, 38.332825, 548.0, 229.5 ],
					"presentation" : 1,
					"presentation_rect" : [ 4.75, 38.0, 546.5, 222.0 ],
					"varname" : "visca"
				}

			}
, 			{
				"box" : 				{
					"fontname" : "Arial",
					"fontsize" : 14.0,
					"hidden" : 1,
					"id" : "obj-16",
					"maxclass" : "newobj",
					"numinlets" : 0,
					"numoutlets" : 0,
					"patcher" : 					{
						"fileversion" : 1,
						"appversion" : 						{
							"major" : 6,
							"minor" : 1,
							"revision" : 9,
							"architecture" : "x86"
						}
,
						"rect" : [ 0.0, 26.0, 555.0, 272.0 ],
						"bglocked" : 0,
						"openinpresentation" : 1,
						"default_fontsize" : 12.0,
						"default_fontface" : 0,
						"default_fontname" : "Arial",
						"gridonopen" : 0,
						"gridsize" : [ 15.0, 15.0 ],
						"gridsnaponopen" : 0,
						"statusbarvisible" : 2,
						"toolbarvisible" : 1,
						"boxanimatetime" : 200,
						"imprint" : 0,
						"enablehscroll" : 1,
						"enablevscroll" : 1,
						"devicewidth" : 0.0,
						"description" : "",
						"digest" : "",
						"tags" : "",
						"showontab" : 1,
						"boxes" : [ 							{
								"box" : 								{
									"args" : [ "/osc" ],
									"bgmode" : 1,
									"border" : 1,
									"id" : "obj-1",
									"maxclass" : "bpatcher",
									"name" : "osc.view.maxpat",
									"numinlets" : 0,
									"numoutlets" : 0,
									"patching_rect" : [ -2.0, 0.0, 486.0, 63.0 ],
									"presentation" : 1,
									"presentation_rect" : [ 1.75, 2.0, 486.0, 63.0 ],
									"varname" : "osc"
								}

							}
 ],
						"lines" : [  ]
					}
,
					"patching_rect" : [ 323.5, 12.332825, 44.0, 22.0 ],
					"saved_object_attributes" : 					{
						"default_fontface" : 0,
						"default_fontname" : "Arial",
						"default_fontsize" : 12.0,
						"description" : "",
						"digest" : "",
						"fontface" : 0,
						"fontname" : "Arial",
						"fontsize" : 12.0,
						"globalpatchername" : "",
						"tags" : ""
					}
,
					"text" : "p osc"
				}

			}
, 			{
				"box" : 				{
					"color" : [ 0.293309, 0.632653, 0.329417, 1.0 ],
					"fontname" : "Arial",
					"fontsize" : 14.0,
					"hidden" : 1,
					"id" : "obj-12",
					"maxclass" : "newobj",
					"numinlets" : 0,
					"numoutlets" : 0,
					"patcher" : 					{
						"fileversion" : 1,
						"appversion" : 						{
							"major" : 6,
							"minor" : 1,
							"revision" : 9,
							"architecture" : "x86"
						}
,
						"rect" : [ 714.0, 109.0, 492.0, 347.0 ],
						"bglocked" : 0,
						"openinpresentation" : 0,
						"default_fontsize" : 12.0,
						"default_fontface" : 0,
						"default_fontname" : "Arial",
						"gridonopen" : 0,
						"gridsize" : [ 15.0, 15.0 ],
						"gridsnaponopen" : 0,
						"statusbarvisible" : 2,
						"toolbarvisible" : 1,
						"boxanimatetime" : 200,
						"imprint" : 0,
						"enablehscroll" : 1,
						"enablevscroll" : 1,
						"devicewidth" : 0.0,
						"description" : "",
						"digest" : "",
						"tags" : "",
						"boxes" : [ 							{
								"box" : 								{
									"fontname" : "Arial",
									"fontsize" : 12.0,
									"id" : "obj-9",
									"linecount" : 2,
									"maxclass" : "message",
									"numinlets" : 2,
									"numoutlets" : 1,
									"outlettype" : [ "" ],
									"patching_rect" : [ 14.75, 309.0, 186.0, 31.0 ],
									"text" : ";\r/osc/send/address 192.168.0.111"
								}

							}
, 							{
								"box" : 								{
									"fontname" : "Arial",
									"fontsize" : 12.0,
									"id" : "obj-7",
									"maxclass" : "newobj",
									"numinlets" : 1,
									"numoutlets" : 1,
									"outlettype" : [ "" ],
									"patching_rect" : [ 14.75, 281.0, 56.0, 20.0 ],
									"text" : "deferlow"
								}

							}
, 							{
								"box" : 								{
									"fontname" : "Arial",
									"fontsize" : 12.0,
									"id" : "obj-5",
									"maxclass" : "newobj",
									"numinlets" : 0,
									"numoutlets" : 1,
									"outlettype" : [ "" ],
									"patching_rect" : [ 14.75, 251.095764, 100.0, 20.0 ],
									"text" : "r /osc/init/done"
								}

							}
, 							{
								"box" : 								{
									"bubble" : 1,
									"fontname" : "Arial",
									"fontsize" : 12.0,
									"frgb" : 0.0,
									"id" : "obj-2",
									"linecount" : 3,
									"maxclass" : "comment",
									"numinlets" : 1,
									"numoutlets" : 0,
									"patching_rect" : [ 119.75, 195.595764, 167.0, 51.0 ],
									"text" : "Check feedback message from camera to know the satus of our request"
								}

							}
, 							{
								"box" : 								{
									"bubble" : 1,
									"fontname" : "Arial",
									"fontsize" : 12.0,
									"frgb" : 0.0,
									"id" : "obj-4",
									"linecount" : 3,
									"maxclass" : "comment",
									"numinlets" : 1,
									"numoutlets" : 0,
									"patching_rect" : [ 113.75, 62.82663, 214.0, 51.0 ],
									"text" : "This is where osc message are sent to the arduino, and where feedback from arduino is sent back"
								}

							}
, 							{
								"box" : 								{
									"fontname" : "Arial",
									"fontsize" : 12.0,
									"id" : "obj-3",
									"maxclass" : "newobj",
									"numinlets" : 2,
									"numoutlets" : 1,
									"outlettype" : [ "" ],
									"patching_rect" : [ 14.75, 145.717255, 116.0, 20.0 ],
									"text" : "timebasedqueue 20"
								}

							}
, 							{
								"box" : 								{
									"fontname" : "Arial",
									"fontsize" : 12.0,
									"id" : "obj-24",
									"maxclass" : "newobj",
									"numinlets" : 1,
									"numoutlets" : 1,
									"outlettype" : [ "" ],
									"patching_rect" : [ 14.75, 78.32663, 91.0, 20.0 ],
									"text" : "osc.model /osc"
								}

							}
, 							{
								"box" : 								{
									"annotation" : "none",
									"fontname" : "Arial",
									"fontsize" : 14.0,
									"id" : "obj-26",
									"maxclass" : "newobj",
									"numinlets" : 0,
									"numoutlets" : 1,
									"outlettype" : [ "" ],
									"patching_rect" : [ 14.75, 19.595764, 133.0, 22.0 ],
									"text" : "visca.model visca.1"
								}

							}
, 							{
								"box" : 								{
									"bubble" : 1,
									"fontname" : "Arial",
									"fontsize" : 12.0,
									"frgb" : 0.0,
									"id" : "obj-1",
									"linecount" : 3,
									"maxclass" : "comment",
									"numinlets" : 1,
									"numoutlets" : 0,
									"patching_rect" : [ 130.75, 130.217255, 231.0, 51.0 ],
									"text" : "this don(t have to be a time based queue. New action must be (re)send until the completion is done"
								}

							}
, 							{
								"box" : 								{
									"fontname" : "Arial",
									"fontsize" : 12.0,
									"id" : "obj-64",
									"maxclass" : "message",
									"numinlets" : 2,
									"numoutlets" : 1,
									"outlettype" : [ "" ],
									"patching_rect" : [ 377.75, 78.32663, 35.0, 18.0 ],
									"text" : "front"
								}

							}
, 							{
								"box" : 								{
									"color" : [ 0.892136, 0.861342, 0.0, 1.0 ],
									"fontname" : "Arial",
									"fontsize" : 12.0,
									"id" : "obj-50",
									"maxclass" : "newobj",
									"numinlets" : 1,
									"numoutlets" : 2,
									"outlettype" : [ "", "" ],
									"patching_rect" : [ 377.75, 100.32663, 70.0, 20.0 ],
									"save" : [ "#N", "thispatcher", ";", "#Q", "end", ";" ],
									"text" : "thispatcher"
								}

							}
, 							{
								"box" : 								{
									"color" : [ 0.0, 0.572549, 0.811765, 1.0 ],
									"fontname" : "Arial",
									"fontsize" : 12.0,
									"id" : "obj-49",
									"maxclass" : "newobj",
									"numinlets" : 0,
									"numoutlets" : 1,
									"outlettype" : [ "" ],
									"patching_rect" : [ 377.75, 52.32663, 91.0, 20.0 ],
									"text" : "r /engine/editor"
								}

							}
, 							{
								"box" : 								{
									"color" : [ 0.154413, 0.605405, 0.052319, 1.0 ],
									"fontname" : "Arial",
									"fontsize" : 14.0,
									"id" : "obj-99",
									"maxclass" : "newobj",
									"numinlets" : 1,
									"numoutlets" : 0,
									"patcher" : 									{
										"fileversion" : 1,
										"appversion" : 										{
											"major" : 6,
											"minor" : 1,
											"revision" : 9,
											"architecture" : "x86"
										}
,
										"rect" : [ 661.0, 125.0, 425.0, 448.0 ],
										"bglocked" : 0,
										"openinpresentation" : 0,
										"default_fontsize" : 12.0,
										"default_fontface" : 0,
										"default_fontname" : "Arial",
										"gridonopen" : 0,
										"gridsize" : [ 15.0, 15.0 ],
										"gridsnaponopen" : 0,
										"statusbarvisible" : 2,
										"toolbarvisible" : 1,
										"boxanimatetime" : 200,
										"imprint" : 0,
										"enablehscroll" : 1,
										"enablevscroll" : 1,
										"devicewidth" : 0.0,
										"description" : "",
										"digest" : "",
										"tags" : "",
										"boxes" : [ 											{
												"box" : 												{
													"color" : [ 0.0, 0.54902, 0.0, 1.0 ],
													"fontname" : "Arial",
													"fontsize" : 14.0,
													"id" : "obj-39",
													"maxclass" : "newobj",
													"numinlets" : 1,
													"numoutlets" : 0,
													"patcher" : 													{
														"fileversion" : 1,
														"appversion" : 														{
															"major" : 6,
															"minor" : 1,
															"revision" : 9,
															"architecture" : "x86"
														}
,
														"rect" : [ 25.0, 69.0, 874.0, 519.0 ],
														"bglocked" : 0,
														"openinpresentation" : 0,
														"default_fontsize" : 12.0,
														"default_fontface" : 0,
														"default_fontname" : "Arial",
														"gridonopen" : 0,
														"gridsize" : [ 15.0, 15.0 ],
														"gridsnaponopen" : 0,
														"statusbarvisible" : 2,
														"toolbarvisible" : 1,
														"boxanimatetime" : 200,
														"imprint" : 0,
														"enablehscroll" : 1,
														"enablevscroll" : 1,
														"devicewidth" : 0.0,
														"description" : "",
														"digest" : "",
														"tags" : "",
														"boxes" : [ 															{
																"box" : 																{
																	"fontname" : "Arial",
																	"fontsize" : 12.0,
																	"id" : "obj-30",
																	"maxclass" : "newobj",
																	"numinlets" : 1,
																	"numoutlets" : 1,
																	"outlettype" : [ "" ],
																	"patching_rect" : [ 31.5, 307.167175, 59.0, 20.0 ],
																	"text" : "tosymbol"
																}

															}
, 															{
																"box" : 																{
																	"fontname" : "Arial",
																	"fontsize" : 12.0,
																	"id" : "obj-52",
																	"maxclass" : "newobj",
																	"numinlets" : 2,
																	"numoutlets" : 2,
																	"outlettype" : [ "", "" ],
																	"patching_rect" : [ 18.0, 58.0, 100.0, 20.0 ],
																	"text" : "route /visca/from"
																}

															}
, 															{
																"box" : 																{
																	"fontname" : "Arial",
																	"fontsize" : 12.0,
																	"id" : "obj-45",
																	"maxclass" : "newobj",
																	"numinlets" : 2,
																	"numoutlets" : 1,
																	"outlettype" : [ "" ],
																	"patching_rect" : [ 31.5, 277.0, 41.0, 20.0 ],
																	"text" : "gate"
																}

															}
, 															{
																"box" : 																{
																	"fontname" : "Arial",
																	"fontsize" : 12.0,
																	"id" : "obj-46",
																	"maxclass" : "newobj",
																	"numinlets" : 2,
																	"numoutlets" : 1,
																	"outlettype" : [ "int" ],
																	"patching_rect" : [ 31.5, 242.0, 36.0, 20.0 ],
																	"text" : ">= 3"
																}

															}
, 															{
																"box" : 																{
																	"fontname" : "Arial",
																	"fontsize" : 12.0,
																	"id" : "obj-47",
																	"maxclass" : "newobj",
																	"numinlets" : 1,
																	"numoutlets" : 2,
																	"outlettype" : [ "", "" ],
																	"patching_rect" : [ 18.0, 180.0, 32.5, 20.0 ],
																	"text" : "t l l"
																}

															}
, 															{
																"box" : 																{
																	"fontname" : "Arial",
																	"fontsize" : 12.0,
																	"id" : "obj-48",
																	"maxclass" : "newobj",
																	"numinlets" : 2,
																	"numoutlets" : 2,
																	"outlettype" : [ "", "" ],
																	"patching_rect" : [ 31.5, 209.0, 39.0, 20.0 ],
																	"text" : "zl len"
																}

															}
, 															{
																"box" : 																{
																	"fontname" : "Arial",
																	"fontsize" : 12.0,
																	"id" : "obj-49",
																	"maxclass" : "newobj",
																	"numinlets" : 1,
																	"numoutlets" : 2,
																	"outlettype" : [ "", "" ],
																	"patching_rect" : [ 18.0, 87.0, 81.0, 20.0 ],
																	"text" : "t l l"
																}

															}
, 															{
																"box" : 																{
																	"fontname" : "Arial",
																	"fontsize" : 12.0,
																	"id" : "obj-50",
																	"maxclass" : "newobj",
																	"numinlets" : 2,
																	"numoutlets" : 2,
																	"outlettype" : [ "", "" ],
																	"patching_rect" : [ 18.0, 147.0, 81.0, 20.0 ],
																	"text" : "zl group"
																}

															}
, 															{
																"box" : 																{
																	"fontname" : "Arial",
																	"fontsize" : 12.0,
																	"id" : "obj-51",
																	"maxclass" : "newobj",
																	"numinlets" : 2,
																	"numoutlets" : 2,
																	"outlettype" : [ "bang", "" ],
																	"patching_rect" : [ 18.0, 116.0, 49.0, 20.0 ],
																	"text" : "sel 255"
																}

															}
, 															{
																"box" : 																{
																	"fontname" : "Arial",
																	"fontsize" : 12.0,
																	"id" : "obj-53",
																	"maxclass" : "message",
																	"numinlets" : 2,
																	"numoutlets" : 1,
																	"outlettype" : [ "" ],
																	"patching_rect" : [ 529.5, 370.167175, 117.0, 18.0 ],
																	"text" : "IF Clear (braodcast)"
																}

															}
, 															{
																"box" : 																{
																	"fontname" : "Arial",
																	"fontsize" : 12.0,
																	"id" : "obj-55",
																	"maxclass" : "message",
																	"numinlets" : 2,
																	"numoutlets" : 1,
																	"outlettype" : [ "" ],
																	"patching_rect" : [ 446.5, 388.167175, 251.0, 18.0 ],
																	"text" : "ACK is not returned for the inquiry command."
																}

															}
, 															{
																"box" : 																{
																	"fontname" : "Arial",
																	"fontsize" : 12.0,
																	"id" : "obj-56",
																	"maxclass" : "message",
																	"numinlets" : 2,
																	"numoutlets" : 1,
																	"outlettype" : [ "" ],
																	"patching_rect" : [ 363.5, 413.167175, 155.0, 18.0 ],
																	"text" : "Command Not Executable)"
																}

															}
, 															{
																"box" : 																{
																	"fontname" : "Arial",
																	"fontsize" : 12.0,
																	"id" : "obj-22",
																	"maxclass" : "message",
																	"numinlets" : 2,
																	"numoutlets" : 1,
																	"outlettype" : [ "" ],
																	"patching_rect" : [ 280.5, 388.167175, 128.0, 18.0 ],
																	"text" : "Command Buffer Full)"
																}

															}
, 															{
																"box" : 																{
																	"fontname" : "Arial",
																	"fontsize" : 12.0,
																	"id" : "obj-23",
																	"maxclass" : "message",
																	"numinlets" : 2,
																	"numoutlets" : 1,
																	"outlettype" : [ "" ],
																	"patching_rect" : [ 197.5, 388.167175, 77.0, 18.0 ],
																	"text" : "Syntax Error"
																}

															}
, 															{
																"box" : 																{
																	"fontname" : "Arial",
																	"fontsize" : 12.0,
																	"id" : "obj-24",
																	"maxclass" : "message",
																	"numinlets" : 2,
																	"numoutlets" : 1,
																	"outlettype" : [ "" ],
																	"patching_rect" : [ 114.5, 413.167175, 135.0, 18.0 ],
																	"text" : "compeltion (completed)"
																}

															}
, 															{
																"box" : 																{
																	"fontname" : "Arial",
																	"fontsize" : 12.0,
																	"id" : "obj-26",
																	"maxclass" : "message",
																	"numinlets" : 2,
																	"numoutlets" : 1,
																	"outlettype" : [ "" ],
																	"patching_rect" : [ 31.5, 439.167175, 95.0, 18.0 ],
																	"text" : "ACK (accepted)"
																}

															}
, 															{
																"box" : 																{
																	"fontname" : "Arial",
																	"fontsize" : 12.0,
																	"id" : "obj-63",
																	"maxclass" : "newobj",
																	"numinlets" : 1,
																	"numoutlets" : 0,
																	"patching_rect" : [ 778.5, 478.0, 73.0, 20.0 ],
																	"text" : "print VISCA"
																}

															}
, 															{
																"box" : 																{
																	"fontname" : "Arial",
																	"fontsize" : 12.0,
																	"id" : "obj-65",
																	"maxclass" : "newobj",
																	"numinlets" : 10,
																	"numoutlets" : 10,
																	"outlettype" : [ "", "", "", "", "", "", "", "", "", "" ],
																	"patching_rect" : [ 31.5, 337.167175, 766.0, 20.0 ],
																	"text" : "route \"144 65 255\" \"144 81 255\" \"144 96 2 255\" \"144 96 3 255\" \"144 96 65 255\" \"144 80 2 255\" \"136 1 0 1 255\" \"144 82 255\" \"144 66 255\""
																}

															}
, 															{
																"box" : 																{
																	"comment" : "",
																	"id" : "obj-38",
																	"maxclass" : "inlet",
																	"numinlets" : 0,
																	"numoutlets" : 1,
																	"outlettype" : [ "" ],
																	"patching_rect" : [ 18.0, 22.0, 25.0, 25.0 ]
																}

															}
 ],
														"lines" : [ 															{
																"patchline" : 																{
																	"destination" : [ "obj-63", 0 ],
																	"disabled" : 0,
																	"hidden" : 0,
																	"source" : [ "obj-22", 0 ]
																}

															}
, 															{
																"patchline" : 																{
																	"destination" : [ "obj-63", 0 ],
																	"disabled" : 0,
																	"hidden" : 0,
																	"source" : [ "obj-23", 0 ]
																}

															}
, 															{
																"patchline" : 																{
																	"destination" : [ "obj-63", 0 ],
																	"disabled" : 0,
																	"hidden" : 0,
																	"source" : [ "obj-24", 0 ]
																}

															}
, 															{
																"patchline" : 																{
																	"destination" : [ "obj-63", 0 ],
																	"disabled" : 0,
																	"hidden" : 0,
																	"source" : [ "obj-26", 0 ]
																}

															}
, 															{
																"patchline" : 																{
																	"destination" : [ "obj-65", 0 ],
																	"disabled" : 0,
																	"hidden" : 0,
																	"source" : [ "obj-30", 0 ]
																}

															}
, 															{
																"patchline" : 																{
																	"destination" : [ "obj-52", 0 ],
																	"disabled" : 0,
																	"hidden" : 0,
																	"source" : [ "obj-38", 0 ]
																}

															}
, 															{
																"patchline" : 																{
																	"destination" : [ "obj-30", 0 ],
																	"disabled" : 0,
																	"hidden" : 0,
																	"source" : [ "obj-45", 0 ]
																}

															}
, 															{
																"patchline" : 																{
																	"destination" : [ "obj-45", 0 ],
																	"disabled" : 0,
																	"hidden" : 0,
																	"source" : [ "obj-46", 0 ]
																}

															}
, 															{
																"patchline" : 																{
																	"destination" : [ "obj-45", 1 ],
																	"disabled" : 0,
																	"hidden" : 0,
																	"source" : [ "obj-47", 0 ]
																}

															}
, 															{
																"patchline" : 																{
																	"destination" : [ "obj-48", 0 ],
																	"disabled" : 0,
																	"hidden" : 0,
																	"source" : [ "obj-47", 1 ]
																}

															}
, 															{
																"patchline" : 																{
																	"destination" : [ "obj-46", 0 ],
																	"disabled" : 0,
																	"hidden" : 0,
																	"source" : [ "obj-48", 0 ]
																}

															}
, 															{
																"patchline" : 																{
																	"destination" : [ "obj-50", 0 ],
																	"disabled" : 0,
																	"hidden" : 0,
																	"midpoints" : [ 89.5, 141.5, 27.5, 141.5 ],
																	"source" : [ "obj-49", 1 ]
																}

															}
, 															{
																"patchline" : 																{
																	"destination" : [ "obj-51", 0 ],
																	"disabled" : 0,
																	"hidden" : 0,
																	"source" : [ "obj-49", 0 ]
																}

															}
, 															{
																"patchline" : 																{
																	"destination" : [ "obj-47", 0 ],
																	"disabled" : 0,
																	"hidden" : 0,
																	"midpoints" : [ 27.5, 168.0, 27.5, 168.0 ],
																	"source" : [ "obj-50", 0 ]
																}

															}
, 															{
																"patchline" : 																{
																	"destination" : [ "obj-50", 0 ],
																	"disabled" : 0,
																	"hidden" : 0,
																	"source" : [ "obj-51", 0 ]
																}

															}
, 															{
																"patchline" : 																{
																	"destination" : [ "obj-49", 0 ],
																	"disabled" : 0,
																	"hidden" : 0,
																	"source" : [ "obj-52", 0 ]
																}

															}
, 															{
																"patchline" : 																{
																	"destination" : [ "obj-63", 0 ],
																	"disabled" : 0,
																	"hidden" : 0,
																	"source" : [ "obj-53", 0 ]
																}

															}
, 															{
																"patchline" : 																{
																	"destination" : [ "obj-63", 0 ],
																	"disabled" : 0,
																	"hidden" : 0,
																	"source" : [ "obj-55", 0 ]
																}

															}
, 															{
																"patchline" : 																{
																	"destination" : [ "obj-63", 0 ],
																	"disabled" : 0,
																	"hidden" : 0,
																	"source" : [ "obj-56", 0 ]
																}

															}
, 															{
																"patchline" : 																{
																	"destination" : [ "obj-22", 0 ],
																	"disabled" : 0,
																	"hidden" : 0,
																	"source" : [ "obj-65", 3 ]
																}

															}
, 															{
																"patchline" : 																{
																	"destination" : [ "obj-23", 0 ],
																	"disabled" : 0,
																	"hidden" : 0,
																	"source" : [ "obj-65", 2 ]
																}

															}
, 															{
																"patchline" : 																{
																	"destination" : [ "obj-24", 0 ],
																	"disabled" : 0,
																	"hidden" : 0,
																	"source" : [ "obj-65", 7 ]
																}

															}
, 															{
																"patchline" : 																{
																	"destination" : [ "obj-24", 0 ],
																	"disabled" : 0,
																	"hidden" : 0,
																	"source" : [ "obj-65", 1 ]
																}

															}
, 															{
																"patchline" : 																{
																	"destination" : [ "obj-26", 0 ],
																	"disabled" : 0,
																	"hidden" : 0,
																	"source" : [ "obj-65", 8 ]
																}

															}
, 															{
																"patchline" : 																{
																	"destination" : [ "obj-26", 0 ],
																	"disabled" : 0,
																	"hidden" : 0,
																	"source" : [ "obj-65", 0 ]
																}

															}
, 															{
																"patchline" : 																{
																	"destination" : [ "obj-53", 0 ],
																	"disabled" : 0,
																	"hidden" : 0,
																	"source" : [ "obj-65", 6 ]
																}

															}
, 															{
																"patchline" : 																{
																	"destination" : [ "obj-55", 0 ],
																	"disabled" : 0,
																	"hidden" : 0,
																	"source" : [ "obj-65", 5 ]
																}

															}
, 															{
																"patchline" : 																{
																	"destination" : [ "obj-56", 0 ],
																	"disabled" : 0,
																	"hidden" : 0,
																	"source" : [ "obj-65", 4 ]
																}

															}
, 															{
																"patchline" : 																{
																	"destination" : [ "obj-63", 0 ],
																	"disabled" : 0,
																	"hidden" : 0,
																	"source" : [ "obj-65", 9 ]
																}

															}
 ]
													}
,
													"patching_rect" : [ 66.25, 16.0, 107.0, 22.0 ],
													"saved_object_attributes" : 													{
														"default_fontface" : 0,
														"default_fontname" : "Arial",
														"default_fontsize" : 12.0,
														"description" : "",
														"digest" : "",
														"fontface" : 0,
														"fontname" : "Arial",
														"fontsize" : 12.0,
														"globalpatchername" : "",
														"tags" : ""
													}
,
													"text" : "p print-answers"
												}

											}
, 											{
												"box" : 												{
													"fontname" : "Arial",
													"fontsize" : 12.0,
													"id" : "obj-9",
													"maxclass" : "newobj",
													"numinlets" : 1,
													"numoutlets" : 0,
													"patching_rect" : [ 208.25, 415.451416, 108.0, 20.0 ],
													"text" : "print ##ERROR##"
												}

											}
, 											{
												"box" : 												{
													"fontname" : "Arial",
													"fontsize" : 12.0,
													"id" : "obj-5",
													"linecount" : 2,
													"maxclass" : "message",
													"numinlets" : 2,
													"numoutlets" : 1,
													"outlettype" : [ "" ],
													"patching_rect" : [ 208.25, 381.451416, 204.0, 31.0 ],
													"text" : "----ERROR---- ONE COMMAND NEED TO BE SENT AGAIN ---------"
												}

											}
, 											{
												"box" : 												{
													"fontname" : "Arial",
													"fontsize" : 12.0,
													"id" : "obj-4",
													"maxclass" : "newobj",
													"numinlets" : 1,
													"numoutlets" : 0,
													"patching_rect" : [ 319.25, 357.451416, 73.0, 20.0 ],
													"text" : "print VISCA"
												}

											}
, 											{
												"box" : 												{
													"fontname" : "Arial",
													"fontsize" : 12.0,
													"id" : "obj-1",
													"maxclass" : "newobj",
													"numinlets" : 2,
													"numoutlets" : 2,
													"outlettype" : [ "", "" ],
													"patching_rect" : [ 208.25, 240.451416, 121.75, 20.0 ],
													"text" : "zl reg"
												}

											}
, 											{
												"box" : 												{
													"fontname" : "Arial",
													"fontsize" : 12.0,
													"id" : "obj-3",
													"maxclass" : "newobj",
													"numinlets" : 2,
													"numoutlets" : 2,
													"outlettype" : [ "", "" ],
													"patching_rect" : [ 208.25, 327.451416, 130.0, 20.0 ],
													"text" : "route retry"
												}

											}
, 											{
												"box" : 												{
													"fontname" : "Arial",
													"fontsize" : 12.0,
													"id" : "obj-88",
													"maxclass" : "newobj",
													"numinlets" : 1,
													"numoutlets" : 1,
													"outlettype" : [ "" ],
													"patching_rect" : [ 208.25, 299.451416, 73.0, 20.0 ],
													"text" : "fromsymbol"
												}

											}
, 											{
												"box" : 												{
													"fontname" : "Arial",
													"fontsize" : 12.0,
													"id" : "obj-14",
													"maxclass" : "newobj",
													"numinlets" : 1,
													"numoutlets" : 1,
													"outlettype" : [ "" ],
													"patching_rect" : [ 59.0, 120.195129, 76.0, 20.0 ],
													"text" : "prepend get"
												}

											}
, 											{
												"box" : 												{
													"fontname" : "Arial",
													"fontsize" : 12.0,
													"id" : "obj-13",
													"maxclass" : "newobj",
													"numinlets" : 3,
													"numoutlets" : 3,
													"outlettype" : [ "bang", "bang", "" ],
													"patching_rect" : [ 172.666672, 207.390259, 90.166672, 20.0 ],
													"text" : "sel 1 0"
												}

											}
, 											{
												"box" : 												{
													"fontname" : "Arial",
													"fontsize" : 12.0,
													"id" : "obj-12",
													"maxclass" : "newobj",
													"numinlets" : 2,
													"numoutlets" : 2,
													"outlettype" : [ "", "" ],
													"patching_rect" : [ 59.0, 92.0, 121.5, 20.0 ],
													"text" : "zl reg"
												}

											}
, 											{
												"box" : 												{
													"fontname" : "Arial",
													"fontsize" : 12.0,
													"id" : "obj-11",
													"maxclass" : "newobj",
													"numinlets" : 1,
													"numoutlets" : 3,
													"outlettype" : [ "", "", "" ],
													"patching_rect" : [ 12.0, 46.0, 318.0, 20.0 ],
													"text" : "t s s s"
												}

											}
, 											{
												"box" : 												{
													"fontname" : "Arial",
													"fontsize" : 12.0,
													"id" : "obj-8",
													"maxclass" : "newobj",
													"numinlets" : 2,
													"numoutlets" : 2,
													"outlettype" : [ "", "" ],
													"patching_rect" : [ 92.333344, 207.390259, 59.5, 20.0 ],
													"text" : "zl slice 1"
												}

											}
, 											{
												"box" : 												{
													"fontname" : "Arial",
													"fontsize" : 12.0,
													"id" : "obj-7",
													"maxclass" : "newobj",
													"numinlets" : 1,
													"numoutlets" : 1,
													"outlettype" : [ "" ],
													"patching_rect" : [ 12.0, 149.0, 104.0, 20.0 ],
													"text" : "prepend contains"
												}

											}
, 											{
												"box" : 												{
													"data" : 													{
														"90 41 ff" : "ack 1 ",
														"90 51 ff" : "done 1",
														"90 42 ff" : "ack 2 ",
														"90 52 ff" : "done 2",
														"90 60 2 ff" : "Syntax Error",
														"90 60 3 ff" : "retry",
														"90 61 41 ff" : "not in this mode 1",
														"90 62 41 ff" : "not in this mode 2"
													}
,
													"fontname" : "Arial",
													"fontsize" : 12.0,
													"id" : "obj-6",
													"maxclass" : "newobj",
													"numinlets" : 2,
													"numoutlets" : 4,
													"outlettype" : [ "dictionary", "", "", "" ],
													"patching_rect" : [ 12.0, 179.195129, 260.0, 20.0 ],
													"saved_object_attributes" : 													{
														"embed" : 1,
														"parameter_enable" : 0
													}
,
													"text" : "dict @embed 1"
												}

											}
, 											{
												"box" : 												{
													"comment" : "",
													"id" : "obj-98",
													"maxclass" : "inlet",
													"numinlets" : 0,
													"numoutlets" : 1,
													"outlettype" : [ "" ],
													"patching_rect" : [ 12.0, 16.0, 25.0, 25.0 ]
												}

											}
 ],
										"lines" : [ 											{
												"patchline" : 												{
													"destination" : [ "obj-88", 0 ],
													"disabled" : 0,
													"hidden" : 0,
													"source" : [ "obj-1", 0 ]
												}

											}
, 											{
												"patchline" : 												{
													"destination" : [ "obj-1", 1 ],
													"disabled" : 0,
													"hidden" : 0,
													"source" : [ "obj-11", 2 ]
												}

											}
, 											{
												"patchline" : 												{
													"destination" : [ "obj-12", 1 ],
													"disabled" : 0,
													"hidden" : 0,
													"source" : [ "obj-11", 1 ]
												}

											}
, 											{
												"patchline" : 												{
													"destination" : [ "obj-7", 0 ],
													"disabled" : 0,
													"hidden" : 0,
													"source" : [ "obj-11", 0 ]
												}

											}
, 											{
												"patchline" : 												{
													"destination" : [ "obj-14", 0 ],
													"disabled" : 0,
													"hidden" : 0,
													"source" : [ "obj-12", 0 ]
												}

											}
, 											{
												"patchline" : 												{
													"destination" : [ "obj-1", 0 ],
													"disabled" : 0,
													"hidden" : 0,
													"source" : [ "obj-13", 1 ]
												}

											}
, 											{
												"patchline" : 												{
													"color" : [ 0.8, 0.334579, 0.202505, 1.0 ],
													"destination" : [ "obj-12", 0 ],
													"disabled" : 0,
													"hidden" : 0,
													"midpoints" : [ 182.166672, 272.390259, 281.333344, 272.390259, 281.333344, 83.0, 68.5, 83.0 ],
													"source" : [ "obj-13", 0 ]
												}

											}
, 											{
												"patchline" : 												{
													"destination" : [ "obj-6", 0 ],
													"disabled" : 0,
													"hidden" : 0,
													"source" : [ "obj-14", 0 ]
												}

											}
, 											{
												"patchline" : 												{
													"destination" : [ "obj-4", 0 ],
													"disabled" : 0,
													"hidden" : 0,
													"source" : [ "obj-3", 1 ]
												}

											}
, 											{
												"patchline" : 												{
													"destination" : [ "obj-5", 0 ],
													"disabled" : 0,
													"hidden" : 0,
													"source" : [ "obj-3", 0 ]
												}

											}
, 											{
												"patchline" : 												{
													"destination" : [ "obj-9", 0 ],
													"disabled" : 0,
													"hidden" : 0,
													"source" : [ "obj-5", 0 ]
												}

											}
, 											{
												"patchline" : 												{
													"destination" : [ "obj-13", 0 ],
													"disabled" : 0,
													"hidden" : 0,
													"source" : [ "obj-6", 2 ]
												}

											}
, 											{
												"patchline" : 												{
													"destination" : [ "obj-8", 0 ],
													"disabled" : 0,
													"hidden" : 0,
													"source" : [ "obj-6", 1 ]
												}

											}
, 											{
												"patchline" : 												{
													"destination" : [ "obj-6", 0 ],
													"disabled" : 0,
													"hidden" : 0,
													"source" : [ "obj-7", 0 ]
												}

											}
, 											{
												"patchline" : 												{
													"destination" : [ "obj-88", 0 ],
													"disabled" : 0,
													"hidden" : 0,
													"midpoints" : [ 142.333344, 281.920837, 217.75, 281.920837 ],
													"source" : [ "obj-8", 1 ]
												}

											}
, 											{
												"patchline" : 												{
													"destination" : [ "obj-3", 0 ],
													"disabled" : 0,
													"hidden" : 0,
													"source" : [ "obj-88", 0 ]
												}

											}
, 											{
												"patchline" : 												{
													"destination" : [ "obj-11", 0 ],
													"disabled" : 0,
													"hidden" : 0,
													"source" : [ "obj-98", 0 ]
												}

											}
, 											{
												"patchline" : 												{
													"destination" : [ "obj-39", 0 ],
													"disabled" : 0,
													"hidden" : 0,
													"source" : [ "obj-98", 0 ]
												}

											}
 ]
									}
,
									"patching_rect" : [ 14.75, 210.095764, 89.0, 22.0 ],
									"saved_object_attributes" : 									{
										"default_fontface" : 0,
										"default_fontname" : "Arial",
										"default_fontsize" : 12.0,
										"description" : "",
										"digest" : "",
										"fontface" : 0,
										"fontname" : "Arial",
										"fontsize" : 12.0,
										"globalpatchername" : "",
										"tags" : ""
									}
,
									"text" : "p verifivation"
								}

							}
 ],
						"lines" : [ 							{
								"patchline" : 								{
									"destination" : [ "obj-3", 0 ],
									"disabled" : 0,
									"hidden" : 0,
									"source" : [ "obj-24", 0 ]
								}

							}
, 							{
								"patchline" : 								{
									"destination" : [ "obj-24", 0 ],
									"disabled" : 0,
									"hidden" : 0,
									"source" : [ "obj-26", 0 ]
								}

							}
, 							{
								"patchline" : 								{
									"destination" : [ "obj-99", 0 ],
									"disabled" : 0,
									"hidden" : 0,
									"source" : [ "obj-3", 0 ]
								}

							}
, 							{
								"patchline" : 								{
									"destination" : [ "obj-64", 0 ],
									"disabled" : 0,
									"hidden" : 0,
									"source" : [ "obj-49", 0 ]
								}

							}
, 							{
								"patchline" : 								{
									"destination" : [ "obj-7", 0 ],
									"disabled" : 0,
									"hidden" : 0,
									"source" : [ "obj-5", 0 ]
								}

							}
, 							{
								"patchline" : 								{
									"destination" : [ "obj-50", 0 ],
									"disabled" : 0,
									"hidden" : 0,
									"source" : [ "obj-64", 0 ]
								}

							}
, 							{
								"patchline" : 								{
									"destination" : [ "obj-9", 0 ],
									"disabled" : 0,
									"hidden" : 0,
									"source" : [ "obj-7", 0 ]
								}

							}
 ]
					}
,
					"patching_rect" : [ 259.5, 12.332825, 64.0, 22.0 ],
					"saved_object_attributes" : 					{
						"default_fontface" : 0,
						"default_fontname" : "Arial",
						"default_fontsize" : 12.0,
						"description" : "",
						"digest" : "",
						"fontface" : 0,
						"fontname" : "Arial",
						"fontsize" : 12.0,
						"globalpatchername" : "",
						"tags" : ""
					}
,
					"text" : "p engine",
					"varname" : "engine"
				}

			}
, 			{
				"box" : 				{
					"fontname" : "Helvetica Light Oblique",
					"fontsize" : 10.0,
					"frgb" : 0.0,
					"id" : "obj-20",
					"maxclass" : "comment",
					"numinlets" : 1,
					"numoutlets" : 0,
					"patching_rect" : [ 122.5, 22.332825, 41.0, 16.0 ],
					"presentation" : 1,
					"presentation_rect" : [ 119.5, 6.0, 41.0, 16.0 ],
					"text" : "v 0.2.2",
					"textcolor" : [ 0.111024, 0.111024, 0.111024, 1.0 ]
				}

			}
, 			{
				"box" : 				{
					"fontname" : "Helvetica Light Oblique",
					"fontsize" : 10.0,
					"frgb" : 0.0,
					"id" : "obj-18",
					"maxclass" : "comment",
					"numinlets" : 1,
					"numoutlets" : 0,
					"patching_rect" : [ 0.5, 22.332825, 94.0, 16.0 ],
					"presentation" : 1,
					"presentation_rect" : [ -0.25, 18.0, 118.0, 16.0 ],
					"text" : "Pixel Stereo - 2015",
					"textcolor" : [ 0.111024, 0.111024, 0.111024, 1.0 ]
				}

			}
, 			{
				"box" : 				{
					"fontname" : "Helvetica Light Oblique",
					"fontsize" : 20.0,
					"frgb" : 0.0,
					"id" : "obj-57",
					"maxclass" : "comment",
					"numinlets" : 1,
					"numoutlets" : 0,
					"patching_rect" : [ 0.5, 2.332825, 170.0, 26.0 ],
					"presentation" : 1,
					"presentation_linecount" : 11,
					"presentation_rect" : [ -2.5, 4.0, 29.0, 226.0 ],
					"text" : "VISCA CONTROL",
					"textcolor" : [ 0.111024, 0.111024, 0.111024, 1.0 ]
				}

			}
, 			{
				"box" : 				{
					"handoff" : "",
					"hilite" : 0,
					"id" : "obj-13",
					"maxclass" : "ubutton",
					"numinlets" : 1,
					"numoutlets" : 4,
					"outlettype" : [ "bang", "bang", "", "int" ],
					"patching_rect" : [ 0.5, 2.332825, 163.0, 36.0 ],
					"presentation" : 1,
					"presentation_rect" : [ 4.75, 4.0, 155.75, 34.0 ]
				}

			}
 ],
		"lines" : [ 			{
				"patchline" : 				{
					"destination" : [ "obj-4", 0 ],
					"disabled" : 0,
					"hidden" : 1,
					"source" : [ "obj-13", 0 ]
				}

			}
 ],
		"dependency_cache" : [ 			{
				"name" : "visca.model.maxpat",
				"bootpath" : "/Volumes/data/GITs/osc-visca/visca-control/max/patchers",
				"patcherrelativepath" : "./patchers",
				"type" : "JSON",
				"implicit" : 1
			}
, 			{
				"name" : "osc.model.maxpat",
				"bootpath" : "/Volumes/data/GITs/deuzair/max package/patchers/modules/osc",
				"patcherrelativepath" : "../../../deuzair/max package/patchers/modules/osc",
				"type" : "JSON",
				"implicit" : 1
			}
, 			{
				"name" : "timebasedqueue.maxpat",
				"bootpath" : "/Volumes/data/GITs/bulle musicale/patchers",
				"patcherrelativepath" : "../../../bulle musicale/patchers",
				"type" : "JSON",
				"implicit" : 1
			}
, 			{
				"name" : "osc.view.maxpat",
				"bootpath" : "/Volumes/data/GITs/deuzair/max package/patchers/modules/osc",
				"patcherrelativepath" : "../../../deuzair/max package/patchers/modules/osc",
				"type" : "JSON",
				"implicit" : 1
			}
, 			{
				"name" : "var.maxpat",
				"bootpath" : "/Applications/Max 6.1/examples/max-tricks/send-receive-tricks/lib",
				"patcherrelativepath" : "../../../../../../Applications/Max 6.1/examples/max-tricks/send-receive-tricks/lib",
				"type" : "JSON",
				"implicit" : 1
			}
, 			{
				"name" : "visca.view.maxpat",
				"bootpath" : "/Volumes/data/GITs/osc-visca/visca-control/max/patchers",
				"patcherrelativepath" : "./patchers",
				"type" : "JSON",
				"implicit" : 1
			}
 ]
	}

}
